# xmcd
#
# Track frame offsets:
#   150
#   18603
#   36879
#   57049
#   81727
#   100092
#   115957
#   129740
#   147742
#   165689
#   181503
#   195549
#
# Disc length: 2817 seconds
#
# Revision: 0
# Processed by: cddbd v1.4PL0 Copyright (c) Steve Scherf et al.
# Submitted via: MyCDs 1.02
#
DISCID=a80aff0c
DTITLE=Boris Uran - Ich
DYEAR=1900
DGENRE=R and B
TTITLE0=In mir
TTITLE1=Nicht
TTITLE2=Komm wieder
TTITLE3=Kennen verlernt
TTITLE4=Zeig´s allen
TTITLE5=Es führt ein Weg
TTITLE6=Die Macht
TTITLE7=Alles was übrig ist
TTITLE8=Gespenster
TTITLE9=Möglichkeiten
TTITLE10=Manchmal
TTITLE11=Wiedergeboren
EXTD=
EXTT0=
EXTT1=
EXTT2=
EXTT3=
EXTT4=
EXTT5=
EXTT6=
EXTT7=
EXTT8=
EXTT9=
EXTT10=
EXTT11=
PLAYORDER=
